<?xml version="1.0" ?><!DOCTYPE svg  PUBLIC '-//W3C//DTD SVG 1.0//EN'  'http://www.w3.org/TR/2001/REC-SVG-20010904/DTD/svg10.dtd'><svg enable-background="new 0 0 32 32" height="32px" id="Layer_1" version="1.0" viewBox="0 0 32 32" width="32px" xml:space="preserve" xmlns="http://www.w3.org/2000/svg" xmlns:xlink="http://www.w3.org/1999/xlink"><g><path d="M32,30c0,1.104-0.896,2-2,2H2c-1.104,0-2-0.896-2-2V2c0-1.104,0.896-2,2-2h28c1.104,0,2,0.896,2,2V30z" fill="#F05222"/><path d="M26,18c0-3-1-4-4-4c0-1,0-2,0-3c0-2.984-3-5-5-5h-5c-3.487,0-6,2.525-6,6v8c0,3.467,2.513,6,6,6h8   c3.485,0,5.979-2.532,6-6C26,20,26,19,26,18z M12.5,11c0.176,0,3.824,0,4,0c0.828,0,1.5,0.672,1.5,1.5S17.328,14,16.5,14   c-0.176,0-3.824,0-4,0c-0.828,0-1.5-0.672-1.5-1.5S11.672,11,12.5,11z M19.5,21c-0.176,0-6.824,0-7,0c-0.828,0-1.5-0.672-1.5-1.5   s0.672-1.5,1.5-1.5c0.176,0,6.824,0,7,0c0.828,0,1.5,0.672,1.5,1.5S20.328,21,19.5,21z" fill="#FFFFFF"/></g><g/><g/><g/><g/><g/><g/></svg>